<?xml version="1.0" standalone="no"?>
<!DOCTYPE svg PUBLIC "-//W3C//DTD SVG 20010904//EN"
 "http://www.w3.org/TR/2001/REC-SVG-20010904/DTD/svg10.dtd">
<svg version="1.0" xmlns="http://www.w3.org/2000/svg"
 width="490.000000pt" height="300.000000pt" viewBox="0 0 490.000000 300.000000"
 preserveAspectRatio="xMidYMid meet">

<g transform="translate(0.000000,300.000000) scale(0.100000,-0.100000)"
fill="#000000" stroke="none">
<path d="M0 1500 l0 -1500 2450 0 2450 0 0 396 c0 371 -1 395 -17 392 -11 -2
-17 -11 -15 -21 2 -13 -5 -17 -33 -17 -24 0 -34 -4 -29 -11 3 -6 -5 -3 -20 6
-14 10 -26 21 -26 25 0 13 31 21 47 11 25 -13 53 -1 53 23 0 12 9 32 21 44
l20 22 -48 -4 c-29 -3 -52 -12 -60 -22 -12 -16 -13 -15 -13 9 0 18 5 27 15 27
9 0 18 7 21 15 4 8 14 15 24 15 10 0 21 7 24 16 4 9 13 14 21 10 13 -5 15 78
15 694 0 431 -4 700 -9 700 -6 0 -13 -5 -16 -11 -5 -6 -11 -4 -19 7 -7 9 -18
14 -24 10 -7 -4 -12 -2 -12 4 0 6 -5 8 -12 4 -7 -4 -8 -3 -4 5 4 6 12 9 17 6
5 -4 25 -1 44 6 l35 13 0 102 c0 58 -4 106 -10 109 -10 6 -14 -6 -11 -36 2
-20 -27 -45 -62 -53 -18 -4 -27 -12 -24 -20 9 -22 -9 -42 -25 -28 -8 6 -19 7
-28 2 -8 -5 -18 -6 -22 -4 -4 3 -8 0 -8 -5 0 -6 0 -13 -1 -16 0 -2 -14 -18
-30 -36 -16 -18 -27 -39 -24 -46 3 -8 -1 -24 -9 -35 -13 -18 -13 -24 2 -47 23
-37 55 -67 67 -63 5 2 7 0 3 -4 -4 -4 -3 -13 3 -21 9 -10 7 -13 -10 -13 -11 0
-21 4 -21 9 0 13 -50 10 -51 -3 -6 -53 -6 -56 11 -56 23 0 16 -35 -12 -67 -16
-17 -18 -25 -9 -40 10 -17 10 -16 11 5 0 13 6 22 15 22 8 0 15 -6 15 -14 0 -8
3 -21 6 -30 4 -11 1 -16 -11 -16 -9 0 -13 -4 -10 -10 3 -5 0 -10 -8 -10 -19 0
-8 -53 17 -92 17 -25 17 -27 -3 -37 -29 -16 -81 -14 -87 4 -5 11 -10 13 -19 5
-10 -8 -21 -2 -47 23 -27 27 -41 34 -73 34 -73 0 -92 3 -92 16 0 6 -4 19 -8
29 -4 11 0 18 15 23 17 5 19 10 9 21 -8 9 -16 11 -29 4 -9 -5 -21 -6 -25 -2
-5 4 -4 0 1 -8 5 -8 7 -23 5 -34 -2 -12 1 -16 10 -11 8 5 10 4 5 -3 -5 -8 -15
-8 -33 -1 -22 8 -24 7 -14 -4 6 -8 9 -22 5 -31 -3 -9 -1 -16 6 -16 6 0 8 -5 5
-10 -3 -5 -16 -10 -27 -10 -21 0 -20 -2 7 -30 15 -16 33 -27 39 -24 6 3 3 -1
-7 -10 -21 -16 -47 -11 -47 10 0 8 -10 14 -22 14 -19 0 -20 -2 -8 -11 12 -8 8
-9 -15 -7 -28 3 -30 1 -27 -27 2 -16 7 -31 13 -33 5 -2 2 -20 -6 -39 l-15 -36
44 5 c34 4 47 1 59 -13 14 -16 14 -19 1 -30 -14 -11 -13 -14 1 -22 15 -8 13
-12 -14 -28 -24 -14 -37 -16 -56 -9 -14 5 -25 6 -25 2 0 -4 -6 0 -13 9 -17 22
-49 31 -67 18 -12 -8 -10 -9 9 -4 29 9 25 -15 -6 -30 -12 -6 -28 -16 -36 -23
-8 -7 -35 -14 -60 -16 -62 -3 -104 -32 -98 -68 1 -9 -102 -4 -116 5 -7 5 -9
-1 -6 -14 4 -12 19 -27 35 -33 15 -6 28 -14 28 -18 0 -13 -13 -9 -45 12 -27
18 -77 29 -62 14 3 -3 -3 -15 -13 -27 -16 -17 -22 -18 -35 -7 -9 7 -14 18 -12
24 3 6 1 18 -4 27 -6 12 0 22 21 38 17 12 30 25 30 30 0 4 -18 14 -41 21 -23
8 -48 25 -57 38 -15 23 -15 25 11 44 15 11 27 29 27 40 0 19 5 20 55 16 52 -4
54 -4 39 13 -10 11 -12 19 -5 24 6 3 11 15 11 26 0 10 3 19 8 19 4 0 15 14 24
31 10 16 23 29 30 28 27 -4 80 14 67 22 -9 5 -6 11 12 19 17 8 24 19 25 41 1
37 5 41 49 44 41 2 50 8 42 30 -6 13 -45 21 -84 16 -7 -1 -13 3 -13 9 0 5 -9
10 -20 10 -26 0 -26 17 0 25 23 7 27 25 5 25 -8 0 -15 -5 -15 -11 0 -5 -4 -8
-9 -5 -4 3 -6 16 -4 30 5 22 39 46 67 46 10 0 12 9 7 33 -15 70 57 144 164
170 86 21 94 21 116 1 12 -11 39 -17 81 -18 35 -1 69 -5 76 -10 8 -5 14 2 18
23 4 16 12 32 20 35 8 3 14 14 14 24 0 39 62 82 118 82 29 0 112 69 112 93 0
18 32 47 52 47 9 0 35 18 57 39 22 22 54 45 71 53 l30 13 0 157 0 158 -496 0
-496 0 7 -32 c4 -18 10 -35 14 -38 3 -3 6 -11 7 -17 2 -30 5 -34 14 -28 9 6
14 -14 11 -42 -1 -7 3 -13 9 -13 5 0 10 -6 10 -13 0 -7 12 -27 28 -45 52 -59
60 -70 55 -76 -3 -3 -2 -13 2 -23 12 -27 14 -93 3 -93 -6 0 -7 -8 -3 -17 4
-10 8 -31 9 -46 2 -25 -1 -28 -21 -22 -22 5 -28 -2 -24 -32 1 -7 -3 -13 -9
-13 -7 0 -9 -8 -5 -20 5 -17 2 -20 -22 -20 -22 0 -25 -2 -13 -10 13 -8 12 -10
-2 -10 -10 0 -17 -3 -15 -7 1 -5 -1 -8 -4 -8 -3 0 -13 -6 -22 -13 -9 -8 -22
-10 -28 -6 -8 5 -10 2 -6 -8 10 -27 -13 -39 -44 -23 -19 10 -30 11 -34 4 -5
-7 -11 -6 -21 2 -11 9 -15 8 -19 -3 -7 -17 -70 -14 -92 4 -7 6 -13 7 -13 2 0
-5 -4 -4 -8 1 -4 6 -22 15 -40 22 -29 10 -32 10 -22 -3 10 -11 10 -14 0 -14
-6 0 -14 9 -17 19 -6 24 -31 31 -55 17 -14 -9 -23 -5 -43 16 -14 15 -25 31
-25 36 0 12 -24 22 -53 23 -21 0 -21 1 -2 9 11 5 14 9 8 9 -7 1 -13 8 -13 17
0 11 -6 15 -18 12 -11 -3 -18 1 -20 11 -4 39 -9 57 -17 71 -5 8 -10 17 -11 20
0 3 -3 12 -6 20 -16 41 -16 59 1 52 14 -5 14 -4 2 11 -12 15 -12 19 4 31 11 8
15 18 10 26 -5 9 -4 11 3 6 8 -5 12 2 12 20 0 15 9 35 22 46 18 15 19 21 8 31
-10 9 -11 9 -6 0 5 -9 2 -11 -9 -7 -14 6 -13 9 4 26 24 22 25 23 9 51 -16 30
-34 47 -42 39 -4 -4 -3 5 3 20 l10 27 -204 1 -204 1 -7 -26 c-7 -30 -14 -31
-41 -6 -11 11 -37 23 -57 27 -30 5 -41 3 -55 -13 -24 -25 -36 -63 -21 -63 6 0
8 5 4 13 -5 8 -2 7 9 -2 10 -8 15 -16 12 -19 -3 -3 0 -11 6 -18 6 -8 6 -14 0
-18 -5 -4 -12 -2 -16 3 -3 6 -12 8 -20 4 -8 -3 -15 0 -15 6 0 6 -8 11 -17 11
-15 0 -15 -1 1 -13 16 -12 16 -14 2 -26 -17 -14 -22 -32 -8 -30 25 4 33 -4 12
-12 -19 -8 -21 -12 -11 -18 11 -7 8 -17 -15 -47 -15 -22 -30 -41 -31 -43 -2
-3 -11 5 -19 18 -12 17 -22 21 -40 17 -17 -5 -24 -2 -24 8 0 24 -18 28 -30 6
-7 -12 -7 -26 -2 -36 11 -19 4 -64 -10 -64 -5 0 -6 4 -3 10 3 5 -2 23 -11 39
-14 24 -15 33 -5 44 13 17 1 30 -21 22 -14 -5 -41 42 -32 56 10 16 36 9 41
-11 3 -11 10 -20 15 -20 5 0 6 10 3 21 -7 20 -5 21 26 15 19 -3 29 -3 23 2 -6
4 -15 22 -19 40 -3 17 -10 32 -15 32 -4 0 -8 16 -8 35 0 28 4 35 19 35 10 0
19 4 19 8 0 4 -48 9 -106 11 -73 1 -104 -1 -99 -8 3 -6 13 -11 22 -11 29 0 83
-24 83 -36 0 -6 10 -18 22 -26 l22 -15 -26 -24 c-59 -54 -63 -56 -72 -33 -4
11 -2 15 8 11 8 -3 20 1 28 10 12 15 9 16 -23 10 -32 -5 -38 -2 -50 20 -7 14
-24 29 -37 34 -17 6 -22 14 -18 25 16 41 -3 44 -305 44 l-289 0 -10 -26 c-19
-49 10 -105 61 -117 21 -5 30 -17 42 -53 8 -25 10 -41 4 -35 -20 20 -35 12
-48 -24 -7 -19 -17 -35 -21 -35 -4 0 -8 -13 -8 -30 0 -25 4 -30 25 -30 31 0
32 -13 4 -39 -12 -11 -18 -24 -15 -29 3 -5 -1 -15 -9 -22 -19 -16 -19 -54 0
-70 8 -7 15 -19 15 -27 0 -9 -42 15 -107 62 -60 41 -130 90 -158 109 -62 42
-125 97 -106 94 7 -2 15 5 17 15 2 9 5 24 7 32 5 23 17 30 17 9 0 -32 16 -50
33 -36 7 7 16 10 19 7 12 -12 0 35 -12 50 -8 9 -15 24 -17 33 -1 9 -9 22 -18
28 -10 7 -17 31 -19 60 -5 66 -4 64 -17 64 -8 0 -7 -6 2 -17 11 -14 7 -13 -21
4 -33 20 -50 21 -278 22 -156 1 -242 -2 -238 -8 4 -5 28 -17 54 -27 26 -10 61
-28 77 -40 17 -12 44 -24 60 -27 68 -11 -300 15 -418 29 -46 6 -48 7 -34 28
30 45 25 46 -319 46 l-324 0 0 -1500z m2845 1480 c-3 -5 -10 -10 -16 -10 -5 0
-9 5 -9 10 0 6 7 10 16 10 8 0 12 -4 9 -10z m-320 -20 c3 -5 1 -10 -4 -10 -6
0 -11 5 -11 10 0 6 2 10 4 10 3 0 8 -4 11 -10z m863 -58 c2 -12 -2 -22 -8 -22
-7 0 -10 8 -7 20 3 10 1 21 -4 24 -5 2 -4 3 3 2 7 -1 14 -12 16 -24z m1472
-17 c0 -8 -9 -15 -20 -15 -20 0 -26 11 -13 23 12 13 33 7 33 -8z m-2300 -24
c0 -12 -20 -25 -27 -18 -7 7 6 27 18 27 5 0 9 -4 9 -9z m360 -43 c0 -5 13 -7
29 -3 37 8 50 -11 25 -36 -17 -16 -22 -17 -44 -4 -14 8 -35 19 -47 24 -22 10
-30 31 -17 44 8 8 54 -14 54 -25z m-510 -48 c0 -13 -7 -20 -20 -20 -22 0 -28
25 -7 33 22 10 27 7 27 -13z m-540 -40 c0 -12 -29 -20 -35 -10 -9 15 4 30 20
23 8 -3 15 -9 15 -13z m72 -32 c-15 -15 -26 -4 -18 18 5 13 9 15 18 6 9 -9 9
-15 0 -24z m1248 -78 c0 -5 -4 -10 -9 -10 -6 0 -13 5 -16 10 -3 6 1 10 9 10 9
0 16 -4 16 -10z m-1334 -194 c10 -8 17 -17 14 -19 -3 -3 -16 3 -29 14 -27 22
-15 26 15 5z m2984 -14 c0 -4 -13 -15 -28 -24 -26 -16 -29 -16 -40 2 -9 14 -8
20 1 23 20 9 67 8 67 -1z m-1820 -92 c0 -5 -4 -10 -9 -10 -6 0 -13 5 -16 10
-3 6 1 10 9 10 9 0 16 -4 16 -10z m-539 -59 c18 -14 21 -22 13 -32 -6 -8 -41
-79 -77 -159 -93 -207 -147 -320 -151 -320 -2 0 3 19 11 41 7 23 11 44 8 47
-6 6 -5 8 -38 -42 -24 -36 -25 -42 -12 -56 18 -20 19 -40 3 -40 -6 0 -9 -3 -5
-6 3 -4 0 -13 -8 -20 -8 -8 -13 -20 -11 -27 1 -7 1 -8 -2 -4 -2 5 -16 -2 -30
-15 -15 -13 -21 -16 -14 -7 16 22 2 33 -15 11 -12 -15 -13 -13 -8 21 6 43 -10
50 -27 12 -6 -14 -14 -25 -18 -25 -7 0 53 120 109 221 175 312 237 419 242
419 4 0 17 -8 30 -19z m87 -6 c16 -12 19 -20 12 -33 -5 -9 -12 -30 -15 -46 -4
-18 -9 -25 -14 -18 -4 6 -29 -55 -56 -138 -27 -82 -51 -148 -53 -146 -2 2 13
58 32 125 20 66 36 124 35 128 0 10 -47 -108 -83 -212 -16 -44 -33 -84 -38
-90 -5 -5 26 92 69 217 43 126 80 228 83 228 3 0 15 -7 28 -15z m-493 -35 c-3
-5 -2 -10 4 -10 5 0 13 5 16 10 7 12 28 13 23 2 -1 -5 -61 -62 -133 -127 -71
-65 -174 -159 -228 -208 -53 -49 -94 -81 -90 -71 4 12 3 15 -5 10 -32 -20 0
12 124 124 74 67 133 125 130 128 -3 3 -15 -3 -26 -13 -11 -10 -20 -16 -20
-13 0 2 39 38 88 78 48 41 76 62 63 47 -31 -34 -13 -36 19 -2 13 14 20 25 16
25 -5 0 -3 7 4 15 14 17 24 20 15 5z m552 -27 c-3 -10 -5 -4 -5 12 0 17 2 24
5 18 2 -7 2 -21 0 -30z m-647 3 c0 -2 -8 -10 -17 -17 -16 -13 -17 -12 -4 4 13
16 21 21 21 13z m-50 -40 c0 -2 -17 -16 -37 -31 l-38 -26 35 30 c34 31 40 35
40 27z m2770 -15 c0 -10 -30 -24 -37 -17 -3 3 -2 9 2 15 8 13 35 15 35 2z m53
-22 c-16 -3 -35 -9 -41 -13 -7 -4 -12 -3 -12 3 0 6 11 13 25 17 14 3 25 11 25
16 0 6 7 4 16 -3 15 -12 14 -14 -13 -20z m-2743 -38 c0 -5 8 -7 18 -4 10 2 30
-5 45 -17 33 -27 38 -75 7 -85 -19 -6 -19 -8 -5 -35 8 -16 15 -34 15 -41 0 -6
-35 -60 -79 -118 -77 -104 -122 -167 -350 -490 -63 -89 -119 -165 -124 -168
-6 -3 -7 -1 -3 6 4 6 0 18 -8 27 -9 9 -14 20 -10 25 3 5 -6 13 -20 19 -27 10
-46 38 -46 68 0 16 5 19 22 14 15 -3 19 -2 14 7 -5 7 -2 10 6 9 7 -2 14 7 16
19 2 12 13 25 25 29 12 4 28 15 35 25 7 10 28 21 47 25 75 14 155 54 155 78 0
4 14 24 30 43 28 31 29 36 16 61 -10 20 -11 45 -5 101 9 85 5 96 -49 111 -31
8 -40 7 -62 -12 -26 -23 75 85 215 230 76 78 95 93 95 73z m1835 -209 c-10
-10 -45 12 -45 28 0 17 2 17 24 -3 14 -12 23 -23 21 -25z m-573 -264 c-6 -6
-15 -8 -19 -4 -4 4 -1 11 7 16 19 12 27 3 12 -12z m-1122 -8 c0 -5 -5 -10 -11
-10 -5 0 -7 5 -4 10 3 6 8 10 11 10 2 0 4 -4 4 -10z m-35 -20 c-3 -5 -11 -10
-16 -10 -6 0 -7 5 -4 10 3 6 11 10 16 10 6 0 7 -4 4 -10z m2212 -21 c19 -7 24
-12 14 -18 -14 -9 -62 9 -55 21 6 10 7 10 41 -3z m-972 -58 c-3 -6 -11 -8 -17
-5 -6 4 -5 9 3 15 16 10 23 4 14 -10z m-1045 -21 c0 -5 -4 -10 -10 -10 -5 0
-10 5 -10 10 0 6 5 10 10 10 6 0 10 -4 10 -10z m1060 -5 c0 -14 -37 -35 -61
-35 -11 0 42 49 54 50 4 0 7 -7 7 -15z m-1073 -37 c-3 -8 -6 -5 -6 6 -1 11 2
17 5 13 3 -3 4 -12 1 -19z m-193 -24 c9 -8 16 -18 16 -20 0 -7 -38 15 -45 26
-10 16 12 12 29 -6z m246 6 c0 -13 -11 -13 -30 0 -12 8 -11 10 8 10 12 0 22
-4 22 -10z m-50 -4 c0 -3 -4 -8 -10 -11 -5 -3 -10 -1 -10 4 0 6 5 11 10 11 6
0 10 -2 10 -4z m40 -26 c0 -5 -2 -10 -4 -10 -3 0 -8 5 -11 10 -3 6 -1 10 4 10
6 0 11 -4 11 -10z m-240 -31 c0 -6 -7 -6 -19 1 -29 15 -39 12 -17 -5 18 -13
18 -15 2 -21 -29 -11 -43 12 -22 35 14 16 23 18 37 10 11 -5 19 -14 19 -20z
m1030 -22 c0 -5 -4 -5 -10 -2 -5 3 -10 14 -10 23 0 15 2 15 10 2 5 -8 10 -19
10 -23z m47 11 c-3 -8 -6 -5 -6 6 -1 11 2 17 5 13 3 -3 4 -12 1 -19z m-1186
-7 c7 -10 20 -16 29 -14 19 5 46 -22 31 -31 -6 -4 -28 5 -50 19 -43 27 -69 34
-37 10 19 -14 15 -52 -4 -40 -6 4 -8 11 -5 16 4 5 -1 9 -9 9 -20 0 -20 9 1 32
20 23 30 23 44 -1z m249 -31 c13 -24 12 -24 -6 -10 -10 8 -21 15 -23 17 -1 1
0 7 4 13 8 13 8 13 25 -20z m790 4 c0 -8 -5 -12 -10 -9 -6 4 -8 11 -5 16 9 14
15 11 15 -7z m700 -3 c0 -10 6 -24 14 -30 16 -13 15 -36 -1 -52 -8 -8 -15 -4
-27 12 -9 13 -16 29 -16 36 0 7 -4 13 -10 13 -17 0 -11 28 8 33 30 8 32 7 32
-12z m600 -13 c0 -12 -10 -9 -26 6 -20 21 -17 28 6 14 11 -7 20 -16 20 -20z
m-1260 12 c0 -5 -2 -10 -4 -10 -3 0 -8 5 -11 10 -3 6 -1 10 4 10 6 0 11 -4 11
-10z m-836 -25 c24 -19 12 -39 -14 -22 -11 6 -20 17 -20 24 0 17 10 16 34 -2z
m-205 -8 c6 -8 8 -17 5 -20 -7 -7 -44 14 -44 25 0 13 27 9 39 -5z m2417 -34
c-10 -10 -19 5 -10 18 6 11 8 11 12 0 2 -7 1 -15 -2 -18z m-2216 -18 c0 -12
-5 -12 -24 -4 -14 7 -22 17 -19 25 7 18 43 0 43 -21z m50 14 c0 -6 -4 -7 -10
-4 -5 3 -10 11 -10 16 0 6 5 7 10 4 6 -3 10 -11 10 -16z m-260 -15 c0 -20 -7
-17 -20 6 -9 16 -8 18 5 14 8 -4 15 -12 15 -20z m-89 -17 c-10 -9 -11 -8 -5 6
3 10 9 15 12 12 3 -3 0 -11 -7 -18z m284 -15 c-7 -8 -35 7 -35 18 0 6 7 6 20
-2 10 -7 17 -14 15 -16z m712 -14 c-3 -8 -6 -5 -6 6 -1 11 2 17 5 13 3 -3 4
-12 1 -19z m1665 -68 c18 -17 19 -20 5 -20 -9 0 -21 9 -27 20 -6 11 -8 20 -5
20 3 0 15 -9 27 -20z m-1665 -52 c-3 -8 -6 -5 -6 6 -1 11 2 17 5 13 3 -3 4
-12 1 -19z m1863 2 c-8 -5 -19 -10 -25 -10 -5 0 -3 5 5 10 8 5 20 10 25 10 6
0 3 -5 -5 -10z m-2967 -14 c9 -7 17 -17 17 -22 0 -4 -5 -3 -12 4 -16 16 -28
15 -28 -3 0 -9 -6 -12 -15 -9 -11 5 -12 11 -4 25 11 22 18 23 42 5z m952 -26
c3 -5 1 -10 -4 -10 -6 0 -11 5 -11 10 0 6 2 10 4 10 3 0 8 -4 11 -10z m1995 2
c0 -13 -32 -39 -55 -46 -14 -4 -24 0 -33 14 -10 17 -10 20 3 20 8 0 15 5 15
10 0 6 16 10 35 10 19 0 35 -4 35 -8z m-1830 -12 c0 -5 -2 -10 -4 -10 -3 0 -8
5 -11 10 -3 6 -1 10 4 10 6 0 11 -4 11 -10z m-1160 -22 c0 -6 -3 -8 -7 -5 -3
4 -12 -1 -20 -11 -12 -15 -12 -13 -2 10 11 26 29 29 29 6z m1120 1 c0 -6 -4
-7 -10 -4 -5 3 -10 11 -10 16 0 6 5 7 10 4 6 -3 10 -11 10 -16z m-70 -9 c0 -5
-2 -10 -4 -10 -3 0 -8 5 -11 10 -3 6 -1 10 4 10 6 0 11 -4 11 -10z m-34 -22
c1 -11 -4 -14 -19 -10 -15 4 -18 2 -12 -8 5 -9 4 -11 -3 -6 -9 5 -9 13 -1 27
12 23 31 21 35 -3z m111 -30 c-3 -8 -6 -5 -6 6 -1 11 2 17 5 13 3 -3 4 -12 1
-19z m48 -18 c3 -5 1 -10 -4 -10 -6 0 -11 5 -11 10 0 6 2 10 4 10 3 0 8 -4 11
-10z m-35 -20 c0 -5 -2 -10 -4 -10 -3 0 -8 5 -11 10 -3 6 -1 10 4 10 6 0 11
-4 11 -10z m-1197 -34 c4 -10 1 -13 -8 -9 -8 3 -12 9 -9 14 7 12 11 11 17 -5z
m1504 -22 c-3 -3 -12 -4 -19 -1 -8 3 -5 6 6 6 11 1 17 -2 13 -5z m-797 -14 c0
-5 -4 -10 -10 -10 -5 0 -10 5 -10 10 0 6 5 10 10 10 6 0 10 -4 10 -10z m605
-10 c3 -6 -1 -7 -9 -4 -18 7 -21 14 -7 14 6 0 13 -4 16 -10z m60 -41 c11 -17
-1 -21 -15 -4 -8 9 -8 15 -2 15 6 0 14 -5 17 -11z m-1430 -9 c3 -6 -1 -7 -9
-4 -18 7 -21 14 -7 14 6 0 13 -4 16 -10z m1475 -18 c0 -15 -2 -15 -10 -2 -13
20 -13 33 0 25 6 -3 10 -14 10 -23z m-650 -32 c0 -5 -5 -10 -11 -10 -5 0 -7 5
-4 10 3 6 8 10 11 10 2 0 4 -4 4 -10z m-48 -35 c-2 -14 -8 -25 -12 -25 -4 0
-5 11 -2 25 2 14 8 25 12 25 4 0 5 -11 2 -25z m395 -7 c-3 -7 -5 -2 -5 12 0
14 2 19 5 13 2 -7 2 -19 0 -25z m-1071 -1 c4 -4 -2 -7 -14 -7 -11 0 -24 5 -27
10 -7 11 30 8 41 -3z m711 -9 c-3 -8 -6 -5 -6 6 -1 11 2 17 5 13 3 -3 4 -12 1
-19z m310 -3 c0 -8 -6 -16 -14 -19 -7 -3 -13 1 -13 8 0 8 6 17 13 19 6 3 12 6
13 6 0 1 1 -6 1 -14z"/>
<path d="M2192 1781 c-11 -7 -11 -9 1 -14 16 -6 27 0 27 15 0 10 -11 10 -28
-1z"/>
<path d="M1952 2115 c-20 -19 -32 -35 -26 -35 5 0 25 16 44 35 44 45 31 45
-18 0z"/>
<path d="M1715 1874 c-27 -26 -36 -37 -20 -26 28 19 84 72 74 72 -2 -1 -26
-21 -54 -46z"/>
<path d="M1510 2730 c0 -6 8 -10 17 -8 10 2 18 -2 18 -9 0 -18 15 -28 15 -10
0 10 6 17 13 17 8 0 7 4 -3 10 -20 13 -60 13 -60 0z"/>
<path d="M1780 2620 c0 -5 5 -10 10 -10 6 0 10 5 10 10 0 6 -4 10 -10 10 -5 0
-10 -4 -10 -10z"/>
<path d="M4394 2029 c-3 -6 -18 -8 -33 -5 -14 3 -20 3 -13 0 6 -3 10 -9 7 -14
-8 -14 33 1 46 16 6 8 9 14 6 14 -3 0 -9 -5 -13 -11z"/>
<path d="M4518 2033 c7 -3 16 -2 19 1 4 3 -2 6 -13 5 -11 0 -14 -3 -6 -6z"/>
<path d="M4423 2008 c0 -13 1 -17 4 -10 3 6 14 12 24 12 11 0 17 5 14 10 -12
19 -41 11 -42 -12z"/>
<path d="M4506 2013 c-12 -12 -6 -23 13 -23 24 0 35 25 11 27 -10 1 -21 -1
-24 -4z"/>
<path d="M3900 1560 c-9 -6 -10 -10 -3 -10 6 0 15 5 18 10 8 12 4 12 -15 0z"/>
</g>
</svg>
